<svg width="30" height="30" viewBox="0 0 30 30" fill="none" xmlns="http://www.w3.org/2000/svg">
<path d="M1 4C1 2.34315 2.34315 1 4 1H16C17.6569 1 19 2.34315 19 4V21C19 22.6569 17.6569 24 16 24H4C2.34315 24 1 22.6569 1 21V4Z" fill="url(#paint0_linear_803_153)"/>
<path d="M5 6.5C5 5.67157 5.67157 5 6.5 5H13.5C14.3284 5 15 5.67157 15 6.5C15 7.32843 14.3284 8 13.5 8H6.5C5.67157 8 5 7.32843 5 6.5Z" fill="white"/>
<path d="M5 12.5C5 11.6716 5.67157 11 6.5 11H9.5C10.3284 11 11 11.6716 11 12.5C11 13.3284 10.3284 14 9.5 14H6.5C5.67157 14 5 13.3284 5 12.5Z" fill="white"/>
<path d="M5 18.5C5 17.6716 5.67157 17 6.5 17C7.32843 17 8 17.6716 8 18.5C8 19.3284 7.32843 20 6.5 20C5.67157 20 5 19.3284 5 18.5Z" fill="white"/>
<path d="M29 20C29 24.9706 24.9706 29 20 29C15.0294 29 11 24.9706 11 20C11 15.0294 15.0294 11 20 11C24.9706 11 29 15.0294 29 20Z" fill="url(#paint1_linear_803_153)"/>
<path fill-rule="evenodd" clip-rule="evenodd" d="M21 14C21 13.4477 20.5523 13 20 13C19.4477 13 19 13.4477 19 14V20C19 20.5523 19.4477 21 20 21H26C26.5523 21 27 20.5523 27 20C27 19.4477 26.5523 19 26 19H21V14Z" fill="white"/>
<defs>
<linearGradient id="paint0_linear_803_153" x1="10" y1="1" x2="10" y2="24" gradientUnits="userSpaceOnUse">
<stop stop-color="#FECF3E"/>
<stop offset="1" stop-color="#FFB600"/>
</linearGradient>
<linearGradient id="paint1_linear_803_153" x1="20" y1="11" x2="20" y2="29" gradientUnits="userSpaceOnUse">
<stop stop-color="#FF8500"/>
<stop offset="1" stop-color="#FF6D00"/>
</linearGradient>
</defs>
</svg>
