<svg width="1080" height="1080" viewBox="0 0 1080 1080" fill="none" xmlns="http://www.w3.org/2000/svg">
<rect x="2" y="2" width="1076" height="1076" rx="130" fill="#DB1104"/>
<path fill-rule="evenodd" clip-rule="evenodd" d="M533.199 399C562.799 399 588.666 404.867 610.799 416.6C632.933 428.333 649.999 444.867 661.999 466.2C674.266 487.267 680.399 511.667 680.399 539.4C680.399 566.867 674.266 591.267 661.999 612.6C649.999 633.933 632.799 650.467 610.399 662.2C588.266 673.933 562.533 679.8 533.199 679.8H427.999V399H533.199ZM528.799 620.6C554.666 620.6 574.799 613.533 589.199 599.4C603.599 585.267 610.799 565.267 610.799 539.4C610.799 513.533 603.599 493.4 589.199 479C574.799 464.6 554.666 457.4 528.799 457.4H496.399V620.6H528.799ZM372 489.4C372 505.667 368.267 520.6 360.8 534.2C353.333 547.534 341.867 558.334 326.4 566.6C310.933 574.867 291.733 579 268.8 579H226.4V679.8H158V399H268.8C291.2 399 310.133 402.867 325.6 410.6C341.067 418.334 352.667 429 360.4 442.6C368.133 456.2 372 471.8 372 489.4ZM263.6 524.6C276.667 524.6 286.4 521.534 292.8 515.4C299.2 509.267 302.4 500.6 302.4 489.4C302.4 478.2 299.2 469.534 292.8 463.4C286.4 457.267 276.667 454.2 263.6 454.2H226.4V524.6H263.6ZM921.799 454.8V400H738.999V680.8H807.399V567.2H892.999V514H807.399V454.8H921.799Z" fill="white"/>
</svg>
