<svg width="1080" height="1080" viewBox="0 0 1080 1080" fill="none" xmlns="http://www.w3.org/2000/svg">
<rect x="2" y="2" width="1076" height="1076" rx="130" fill="#34A0A4"/>
<mask id="mask0_1138_158" style="mask-type:alpha" maskUnits="userSpaceOnUse" x="97" y="95" width="888" height="888">
<rect x="97.6406" y="95.6523" width="886.704" height="886.704" rx="70" fill="url(#paint0_linear_1138_158)"/>
</mask>
<g mask="url(#mask0_1138_158)">
<path d="M63.0218 456.388C443.757 215.76 478.367 764.593 1082.4 456.388C1326.06 332.061 1082.4 1156.85 1082.4 1156.85H63.0218C63.0218 1156.85 -168.215 602.532 63.0218 456.388Z" fill="white" fill-opacity="0.31"/>
</g>
<mask id="mask1_1138_158" style="mask-type:alpha" maskUnits="userSpaceOnUse" x="97" y="95" width="888" height="888">
<rect x="97.6406" y="95.6523" width="886.704" height="886.704" rx="70" fill="url(#paint1_linear_1138_158)"/>
</mask>
<g mask="url(#mask1_1138_158)">
<path d="M63.0218 601.802C443.757 361.174 478.367 910.007 1082.4 601.802C1326.06 477.475 1082.4 1302.27 1082.4 1302.27H63.0218C63.0218 1302.27 -168.215 747.946 63.0218 601.802Z" fill="white"/>
</g>
<ellipse cx="786.091" cy="271.001" rx="118.559" ry="119.556" fill="white"/>
<defs>
<linearGradient id="paint0_linear_1138_158" x1="898.229" y1="-37.4356" x2="788.997" y2="993.771" gradientUnits="userSpaceOnUse">
<stop stop-color="#40916C"/>
<stop offset="1" stop-color="#2D6A4F"/>
</linearGradient>
<linearGradient id="paint1_linear_1138_158" x1="898.229" y1="-37.4356" x2="788.997" y2="993.771" gradientUnits="userSpaceOnUse">
<stop stop-color="#40916C"/>
<stop offset="1" stop-color="#2D6A4F"/>
</linearGradient>
</defs>
</svg>
