<svg width="1080" height="1080" viewBox="0 0 1080 1080" fill="none" xmlns="http://www.w3.org/2000/svg">
<rect x="2" y="2" width="1076" height="1076" rx="130" fill="#2368C4"/>
<path fill-rule="evenodd" clip-rule="evenodd" d="M529.799 683.6C503.399 683.6 479.133 677.467 456.999 665.2C435.133 652.933 417.666 635.867 404.599 614C391.799 591.867 385.399 567.067 385.399 539.6C385.399 512.133 391.799 487.467 404.599 465.6C417.666 443.733 435.133 426.667 456.999 414.4C479.133 402.133 503.399 396 529.799 396C556.199 396 580.333 402.133 602.199 414.4C624.333 426.667 641.666 443.733 654.199 465.6C666.999 487.467 673.399 512.133 673.399 539.6C673.399 567.067 666.999 591.867 654.199 614C641.399 635.867 624.066 652.933 602.199 665.2C580.333 677.467 556.199 683.6 529.799 683.6ZM529.799 621.2C552.199 621.2 570.066 613.733 583.399 598.8C596.999 583.867 603.799 564.133 603.799 539.6C603.799 514.8 596.999 495.067 583.399 480.4C570.066 465.467 552.199 458 529.799 458C507.133 458 488.999 465.333 475.399 480C462.066 494.667 455.399 514.533 455.399 539.6C455.399 564.4 462.066 584.267 475.399 599.2C488.999 613.867 507.133 621.2 529.799 621.2ZM211.2 400.002C240.8 400.002 266.667 405.869 288.8 417.602C310.933 429.335 328 445.869 340 467.202C352.267 488.269 358.4 512.669 358.4 540.402C358.4 567.869 352.267 592.269 340 613.602C328 634.935 310.8 651.469 288.4 663.202C266.267 674.935 240.533 680.802 211.2 680.802H106V400.002H211.2ZM206.8 621.602C232.667 621.602 252.8 614.535 267.2 600.402C281.6 586.269 288.8 566.269 288.8 540.402C288.8 514.535 281.6 494.402 267.2 480.002C252.8 465.602 232.667 458.402 206.8 458.402H174.4V621.602H206.8ZM718.399 467.001C706.399 488.601 700.399 513.268 700.399 541.001C700.399 568.734 706.399 593.401 718.399 615.001C730.399 636.601 747.066 653.534 768.399 665.801C789.999 677.801 814.399 683.801 841.599 683.801C874.933 683.801 903.466 675.134 927.199 657.801C950.933 640.201 966.799 616.201 974.799 585.801H899.599C893.999 597.534 885.999 606.468 875.599 612.601C865.466 618.734 853.866 621.801 840.799 621.801C819.733 621.801 802.666 614.468 789.599 599.801C776.533 585.134 769.999 565.534 769.999 541.001C769.999 516.468 776.533 496.868 789.599 482.201C802.666 467.534 819.733 460.201 840.799 460.201C853.866 460.201 865.466 463.268 875.599 469.401C885.999 475.534 893.999 484.468 899.599 496.201H974.799C966.799 465.801 950.933 441.801 927.199 424.201C903.466 406.601 874.933 397.801 841.599 397.801C814.399 397.801 789.999 403.934 768.399 416.201C747.066 428.201 730.399 445.134 718.399 467.001Z" fill="white"/>
</svg>
