<svg width="200" height="200" viewBox="0 0 200 200" fill="none" xmlns="http://www.w3.org/2000/svg">
<rect x="2" y="2" width="196" height="141" rx="20" fill="#0D41E1"/>
<mask id="mask0_165_44" style="mask-type:alpha" maskUnits="userSpaceOnUse" x="2" y="2" width="196" height="141">
<path d="M2 22C2 10.9543 10.9543 2 22 2H178C189.046 2 198 10.9543 198 22V123C198 134.046 189.046 143 178 143H22C10.9543 143 2 134.046 2 123V22Z" fill="#0D41E1"/>
</mask>
<g mask="url(#mask0_165_44)">
<path d="M269 100C269 164.065 217.065 216 153 216C88.935 216 37 164.065 37 100C37 35.935 88.935 -16 153 -16C217.065 -16 269 35.935 269 100Z" fill="url(#paint0_linear_165_44)"/>
</g>
<mask id="mask1_165_44" style="mask-type:alpha" maskUnits="userSpaceOnUse" x="2" y="2" width="196" height="141">
<path d="M2 22C2 10.9543 10.9543 2 22 2H178C189.046 2 198 10.9543 198 22V123C198 134.046 189.046 143 178 143H22C10.9543 143 2 134.046 2 123V22Z" fill="#0D41E1"/>
</mask>
<g mask="url(#mask1_165_44)">
<path d="M220 99.5C220 136.779 189.779 167 152.5 167C115.221 167 85 136.779 85 99.5C85 62.2208 115.221 32 152.5 32C189.779 32 220 62.2208 220 99.5Z" fill="url(#paint1_linear_165_44)"/>
</g>
<path d="M124 99C124 82.9837 136.984 70 153 70C169.016 70 182 82.9837 182 99V178C182 189.046 173.046 198 162 198H144C132.954 198 124 189.046 124 178V99Z" fill="url(#paint2_linear_165_44)"/>
<defs>
<linearGradient id="paint0_linear_165_44" x1="153" y1="-16" x2="153" y2="216" gradientUnits="userSpaceOnUse">
<stop stop-color="#0C63E7"/>
<stop offset="1" stop-color="#0C63E7" stop-opacity="0"/>
</linearGradient>
<linearGradient id="paint1_linear_165_44" x1="152.5" y1="32" x2="152.5" y2="167" gradientUnits="userSpaceOnUse">
<stop stop-color="#0A85ED"/>
<stop offset="1" stop-color="#0A85ED" stop-opacity="0"/>
</linearGradient>
<linearGradient id="paint2_linear_165_44" x1="153" y1="70" x2="153" y2="198" gradientUnits="userSpaceOnUse">
<stop stop-color="#07C8F9"/>
<stop offset="1" stop-color="#09A6F3"/>
</linearGradient>
</defs>
</svg>
